<svg width="36" height="42" viewBox="0 0 36 42" fill="none" xmlns="http://www.w3.org/2000/svg">
<path d="M25.8399 29.3801L20.8799 30.9501L21.7799 25.8301L25.8399 29.3801Z" fill="white"/>
<path d="M35.2298 10.4805V18.6505L26.9098 28.0005L22.7598 24.5305L35.2298 10.4805Z" fill="white"/>
<path d="M19.0702 31.39C18.9902 31.81 19.1402 32.23 19.4502 32.5C19.6802 32.7 19.9702 32.8 20.2502 32.8C20.3702 32.8 20.4902 32.78 20.6102 32.74L27.0902 30.68C27.4002 30.58 27.9402 29.97 28.0002 29.9L35.2102 21.65V40.65C35.2102 41.38 34.6202 41.97 33.9002 41.97H1.56023C0.830234 41.97 0.240234 41.38 0.240234 40.65V1.32C0.240234 0.59 0.830234 0 1.56023 0H33.9002C34.6202 0 35.2102 0.59 35.2102 1.32V7.29L20.8702 23.67C20.8102 23.74 20.2802 24.36 20.2202 24.68L19.0402 31.38L19.0702 31.39Z" fill="white"/>
<path d="M23.3907 8.46094H6.73071C6.03483 8.46094 5.4707 9.02506 5.4707 9.72094V9.97094C5.4707 10.6668 6.03483 11.2309 6.73071 11.2309H23.3907C24.0866 11.2309 24.6507 10.6668 24.6507 9.97094V9.72094C24.6507 9.02506 24.0866 8.46094 23.3907 8.46094Z" fill="#FF4F5A"/>
<path d="M19.4507 18.0898H6.8607C6.09303 18.0898 5.4707 18.7099 5.4707 19.4748C5.4707 20.2398 6.09303 20.8598 6.8607 20.8598H19.4507C20.2184 20.8598 20.8407 20.2398 20.8407 19.4748C20.8407 18.7099 20.2184 18.0898 19.4507 18.0898Z" fill="#FF4F5A"/>
<path d="M16.9907 27.7305H6.7607C6.04826 27.7305 5.4707 28.308 5.4707 29.0205V29.2105C5.4707 29.9229 6.04826 30.5005 6.7607 30.5005H16.9907C17.7031 30.5005 18.2807 29.9229 18.2807 29.2105V29.0205C18.2807 28.308 17.7031 27.7305 16.9907 27.7305Z" fill="#FF4F5A"/>
</svg>
