<svg width="59" height="76" viewBox="0 0 59 76" fill="none" xmlns="http://www.w3.org/2000/svg">
<g clip-path="url(#clip0_298_436)">
<path d="M21.7798 49.6633L4.4092 67.1208C4.20954 67.3214 4.37592 67.6558 4.64214 67.6224L13.7267 66.7194L12.7284 75.2809C12.6952 75.5652 13.0279 75.7157 13.2276 75.5318L30.4817 58.1914" fill="white"/>
<path d="M21.7798 49.6633C16.2724 55.5159 10.5821 61.4019 4.925 67.1375C4.82517 67.2378 4.59223 67.4886 4.69206 67.3549C4.69206 67.3047 4.65878 67.2545 4.60887 67.2545L5.12466 67.2044L13.6935 66.3181L14.2093 66.268L14.1427 66.7863L13.1278 75.1973C13.1111 75.4816 13.1278 75.2308 13.0612 75.2642C13.0279 75.2308 12.8948 75.3478 13.0945 75.1639C18.8015 69.4785 24.6582 63.7597 30.4817 58.2081C24.8579 64.1276 19.1342 70.1808 13.3274 75.9331C12.7617 76.2508 12.196 75.6154 12.3624 75.1137L13.2941 66.7027L13.7434 67.1709L5.17457 67.9903L4.62551 68.0404C4.1929 68.0739 3.82686 67.6391 3.94333 67.2378C4.14299 66.7529 4.25946 66.8198 4.39257 66.6358C10.0996 60.9505 15.9397 55.2484 21.7798 49.6968V49.6633Z" fill="#2B2B2B"/>
<path d="M39.3333 49.0112L56.9036 66.6693C57.1032 66.87 56.9368 67.2044 56.6706 67.171L47.4862 66.2513L48.4845 74.9131C48.5178 75.1974 48.185 75.3646 47.9853 75.1639L30.5482 57.6396" fill="white"/>
<path d="M39.3333 49.0112C45.2234 54.613 51.1467 60.3987 56.9036 66.1342C57.02 66.3182 57.1531 66.2513 57.3528 66.7362C57.4526 67.1542 57.0866 67.589 56.654 67.5556L56.0883 67.5054L47.4196 66.686L47.8855 66.2178L48.8339 74.7292C48.9171 74.9298 48.784 75.4984 48.4512 75.582C47.819 75.883 47.3198 74.9633 46.8206 74.5619C41.3632 69.0104 35.8559 63.3083 30.515 57.6563C36.405 63.2581 42.3283 69.0438 48.1018 74.796C48.3015 74.9967 48.1684 74.8629 48.1351 74.8964C48.0852 74.8629 48.0852 75.1138 48.0685 74.8295L47.0536 66.3349L46.987 65.8165L47.5028 65.8667L56.1548 66.7696L56.6706 66.8198C56.6706 66.8198 56.5708 66.87 56.5874 66.9201C56.6706 67.0539 56.4543 66.7864 56.3545 66.7028C50.6309 60.9171 44.8906 54.9641 39.3167 49.0447L39.3333 49.0112Z" fill="#2B2B2B"/>
<path d="M31.8128 1.73904C32.6613 3.19383 34.6247 3.51154 35.8892 2.39119C37.4199 1.03673 39.8325 1.82265 40.2817 3.82925C40.6478 5.4847 42.4115 6.38767 43.9588 5.7188C45.8223 4.89944 47.8855 6.40439 47.6859 8.44443C47.5195 10.1333 48.9337 11.5379 50.6142 11.3874C52.6441 11.1868 54.1416 13.2603 53.3263 15.1331C52.6608 16.6882 53.5592 18.4607 55.2064 18.8286C57.2031 19.2801 57.9851 21.7047 56.6374 23.2431C55.5226 24.514 55.8387 26.4871 57.2863 27.3399C59.0499 28.3767 59.0499 30.9351 57.2863 31.9718C55.8387 32.8246 55.5226 34.7978 56.6374 36.0686C57.9851 37.607 57.2031 40.0317 55.2064 40.4832C53.5592 40.851 52.6608 42.6235 53.3263 44.1786C54.1416 46.0515 52.6441 48.125 50.6142 47.9243C48.9337 47.7571 47.5361 49.1784 47.6859 50.8673C47.8855 52.9074 45.8223 54.4123 43.9588 53.5929C42.4115 52.9241 40.6478 53.8271 40.2817 55.4825C39.8325 57.4891 37.4199 58.275 35.8892 56.9206C34.6247 55.8002 32.6613 56.1179 31.8128 57.5727C30.7812 59.3452 28.2355 59.3452 27.2039 57.5727C26.3553 56.1179 24.392 55.8002 23.1275 56.9206C21.5967 58.275 19.1842 57.4891 18.7349 55.4825C18.3689 53.8271 16.6052 52.9241 15.0578 53.5929C13.1943 54.4123 11.1311 52.9074 11.3308 50.8673C11.4972 49.1784 10.0829 47.7738 8.40244 47.9243C6.37254 48.125 4.87508 46.0515 5.69037 44.1786C6.35591 42.6235 5.45743 40.851 3.81022 40.4832C1.8136 40.0317 1.0316 37.607 2.37931 36.0686C3.49409 34.7978 3.17796 32.8246 1.73041 31.9718C-0.0332655 30.9351 -0.0332655 28.3767 1.73041 27.3399C3.17796 26.4871 3.49409 24.514 2.37931 23.2431C1.0316 21.7047 1.8136 19.2801 3.81022 18.8286C5.45743 18.4607 6.35591 16.6882 5.69037 15.1331C4.87508 13.2603 6.37254 11.1868 8.40244 11.3874C10.0829 11.5547 11.4806 10.1333 11.3308 8.44443C11.1311 6.40439 13.1943 4.89944 15.0578 5.7188C16.6052 6.38767 18.3689 5.4847 18.7349 3.82925C19.1842 1.82265 21.5967 1.03673 23.1275 2.39119C24.392 3.51154 26.3553 3.19383 27.2039 1.73904C28.2355 -0.0334563 30.7812 -0.0334563 31.8128 1.73904Z" fill="white" stroke="#2B2B2B" stroke-width="0.5" stroke-miterlimit="10"/>
<path d="M29.8494 46.6033C39.1764 46.6033 46.7374 39.0045 46.7374 29.6308C46.7374 20.2572 39.1764 12.6583 29.8494 12.6583C20.5224 12.6583 12.9614 20.2572 12.9614 29.6308C12.9614 39.0045 20.5224 46.6033 29.8494 46.6033Z" fill="white" stroke="#2B2B2B" stroke-width="0.25" stroke-miterlimit="10"/>
<path d="M29.9991 20.3837L32.1788 27.1392C32.262 27.4068 32.5282 27.6074 32.811 27.6074H39.8824L34.1588 31.7878C33.9258 31.9551 33.826 32.2561 33.9092 32.5403L36.0888 39.2959L30.3652 35.1155C30.1323 34.9482 29.8161 34.9482 29.5832 35.1155L23.8595 39.2959L26.0392 32.5403C26.1224 32.2728 26.0392 31.9718 25.7896 31.7878L20.066 27.6074H27.1373C27.4202 27.6074 27.6864 27.4235 27.7696 27.1392L29.9492 20.3837H29.9991Z" fill="#CD2424"/>
</g>
<defs>
<clipPath id="clip0_298_436">
<rect width="59" height="76" fill="white"/>
</clipPath>
</defs>
</svg>
