<svg width="34" height="44" viewBox="0 0 34 44" fill="none" xmlns="http://www.w3.org/2000/svg">
<path d="M24.7601 0.0996094C25.0601 0.299609 25.2901 0.439613 25.3501 0.829613C25.4501 1.47961 25.4401 3.73961 25.3501 4.41961C25.3001 4.79961 25.1201 5.06961 24.7501 5.18961H8.85008C8.47008 5.00961 8.32008 4.73961 8.27008 4.31961C8.18008 3.54961 8.19008 1.95961 8.26008 1.15961C8.30008 0.599611 8.40008 0.419609 8.86008 0.0996094H24.7601Z" fill="white"/>
<path d="M5.70049 2.66992V4.50992C5.70049 6.14992 7.29049 7.70992 8.90049 7.79992H24.8805C26.1205 7.79992 27.9205 6.14992 27.9205 4.92992V2.66992H30.1005C31.6805 2.66992 33.4705 4.63992 33.4705 6.21992V39.8099C33.3605 41.7499 32.4405 43.2299 30.5005 43.7599C21.5905 44.0199 12.6205 43.7999 3.69049 43.8699C1.74049 43.6699 0.290488 42.2099 0.140488 40.2399V6.64993C0.000487504 4.96993 1.80048 2.66992 3.52048 2.66992H5.70049ZM12.3405 12.9399C12.1705 12.9799 11.9905 13.1099 11.8505 13.2199C11.3805 13.5799 9.10049 16.1299 8.89049 16.1599C8.38049 15.8399 8.01049 15.2099 7.35049 15.1399C6.38049 15.0499 5.67048 16.1099 6.09048 17.0099C6.23048 17.3199 7.74049 18.8399 8.06049 19.0599C8.56049 19.3999 9.00049 19.4299 9.54049 19.1099L13.7705 14.8799C14.3705 13.8299 13.5505 12.6899 12.3405 12.9399ZM16.3305 17.6799C16.4905 17.8399 16.8905 18.0299 17.1105 18.0499H26.5105C27.9905 17.7899 27.9705 15.6599 26.4305 15.4799H17.0305C16.0405 15.6899 15.5905 16.9399 16.3305 17.6699V17.6799ZM12.6805 22.0999C12.5305 22.0999 12.3505 22.1699 12.1905 22.1999L8.89049 25.3999C8.73049 25.4299 8.19049 24.7199 8.00049 24.5999C6.97049 23.9199 5.65049 24.8299 6.03049 26.0499C6.18049 26.5199 7.83049 28.2099 8.28049 28.4099C8.73049 28.6099 9.21049 28.5299 9.62049 28.2599C10.2905 27.8099 12.9805 25.0499 13.5605 24.3399C14.3305 23.3899 13.9005 22.0899 12.6805 22.0999ZM16.3305 26.2299C16.4905 26.3899 16.8905 26.5799 17.1105 26.5999H26.5105C27.9905 26.3399 27.9705 24.2099 26.4305 24.0299H17.0305C16.0405 24.2399 15.5905 25.4899 16.3305 26.2199V26.2299ZM12.6805 30.6499C12.5305 30.6499 12.3505 30.7199 12.1905 30.7499L8.89049 33.9499C8.73049 33.9799 8.19049 33.2699 8.00049 33.1499C6.97049 32.4699 5.65049 33.3799 6.03049 34.5999C6.18049 35.0699 7.83049 36.7599 8.28049 36.9599C8.73049 37.1599 9.21049 37.0799 9.62049 36.8099C10.2905 36.3599 12.9805 33.5999 13.5605 32.8899C14.3305 31.9399 13.9005 30.6399 12.6805 30.6499ZM27.3005 32.9499C27.1405 32.7899 26.7405 32.5999 26.5205 32.5799H17.1105C15.6405 32.8599 15.5705 34.7599 17.0305 35.1399H26.5105C27.5505 35.0199 28.0405 33.7099 27.2905 32.9499H27.3005Z" fill="white"/>
</svg>
